<?xml version="1.0" encoding="UTF-8" standalone="no"?>
<!-- Created with Inkscape (http://www.inkscape.org/) -->

<svg
   width="511.99994"
   height="511.99997"
   viewBox="0 0 135.46664 135.46666"
   version="1.1"
   id="svg5"
   inkscape:version="1.3.2 (091e20ef0f, 2023-11-25)"
   sodipodi:docname="icon-padding.svg"
   xml:space="preserve"
   inkscape:export-filename="icon-padding.png"
   inkscape:export-xdpi="96"
   inkscape:export-ydpi="96"
   xmlns:inkscape="http://www.inkscape.org/namespaces/inkscape"
   xmlns:sodipodi="http://sodipodi.sourceforge.net/DTD/sodipodi-0.dtd"
   xmlns="http://www.w3.org/2000/svg"
   xmlns:svg="http://www.w3.org/2000/svg"><sodipodi:namedview
     id="namedview7"
     pagecolor="#ffffff"
     bordercolor="#000000"
     borderopacity="0.25"
     inkscape:showpageshadow="2"
     inkscape:pageopacity="0.0"
     inkscape:pagecheckerboard="0"
     inkscape:deskcolor="#d1d1d1"
     inkscape:document-units="px"
     showgrid="false"
     inkscape:zoom="0.32514439"
     inkscape:cx="-269.11121"
     inkscape:cy="49.208907"
     inkscape:window-width="1704"
     inkscape:window-height="996"
     inkscape:window-x="0"
     inkscape:window-y="0"
     inkscape:window-maximized="1"
     inkscape:current-layer="layer1" /><defs
     id="defs2" /><g
     inkscape:label="Vrstva 1"
     inkscape:groupmode="layer"
     id="layer1"
     transform="translate(-736.41541,-466.10162)"><rect
       style="fill:#39a7ff;stroke-width:0.264583;paint-order:fill markers stroke;fill-opacity:1"
       id="rect6"
       width="135.46666"
       height="135.46667"
       x="736.41541"
       y="466.10162" /><rect
       style="fill:#000000;fill-opacity:0;stroke-width:2.11667;stroke-linecap:square;paint-order:markers stroke fill"
       id="rect2"
       width="135.46666"
       height="135.46666"
       x="736.41541"
       y="466.10162" /><path
       id="path5"
       style="color:#000000;fill:#fafafa;fill-opacity:1;stroke-width:1;stroke-linecap:round;stroke-linejoin:round;-inkscape-stroke:none"
       d="m 843.03991,494.94404 -9.67021,9.67021 c 7.45974,7.45964 12.05972,17.77964 12.05972,29.21992 0,11.44052 -4.59998,21.76133 -12.05972,29.22199 l 9.66866,9.6697 c 9.97236,-9.9713 16.1556,-23.73203 16.1556,-38.89169 0,-15.15931 -6.18205,-28.92011 -16.15405,-38.89013 z m -77.78337,0.002 c -9.97086,9.9698 -16.15302,23.72903 -16.15302,38.88755 0,15.15873 6.18171,28.92008 16.15302,38.89116 l 9.66918,-9.66917 c -7.46101,-7.46078 -12.06231,-17.78171 -12.06231,-29.22199 0,-11.44018 4.60163,-21.75926 12.06231,-29.21889 v -0.001 z m 38.8922,11.36726 c -15.1184,0 -27.52442,12.40225 -27.52442,27.52029 0,15.11792 12.40602,27.52338 27.52442,27.52338 15.11851,0 27.5208,-12.40546 27.5208,-27.52338 0,-15.11804 -12.40229,-27.52029 -27.5208,-27.52029 z m 0,13.76092 c 7.68147,0 13.76092,6.07812 13.76092,13.75937 0,7.68112 -6.07945,13.76401 -13.76092,13.76401 -7.68159,0 -13.75988,-6.08289 -13.75988,-13.76401 0,-7.68125 6.07829,-13.75937 13.75988,-13.75937 z" /></g></svg>
