<svg
   width="36.087002"
   height="28.535999"
   viewBox="0 0 9.5480188 7.55015"
   xmlns="http://www.w3.org/2000/svg">
  <path
     d="M 8.1469,0.80403 7.30823,1.6427 c 0.64698,0.647 1.04594,1.54205 1.04594,2.53428 0,0.99223 -0.39896,1.88738 -1.04594,2.53447 L 8.1468,7.55011 C 9.01169,6.6853 9.54793,5.49178 9.54793,4.17698 9.54793,2.86221 9.01176,1.66876 8.1469,0.80403 Z M 1.40092,0.80422 C 0.53615,1.66893 0,2.86227 0,4.17698 0,5.4917 0.53612,6.68522 1.40092,7.55001 L 2.2395,6.71144 C 1.59242,6.06435 1.19337,5.16921 1.19337,4.17698 c 0,-0.99222 0.39908,-1.8872 1.04613,-2.53419 v -10e-5 z m 3.37303,0.98601 c -1.31119,0 -2.38712,1.07555 -2.38712,2.38675 0,1.31119 1.07593,2.38712 2.38712,2.38712 1.31121,0 2.38685,-1.07593 2.38685,-2.38712 0,-1.3112 -1.07564,-2.38675 -2.38685,-2.38675 z m 0,1.19337 c 0.66621,0 1.19347,0.52717 1.19347,1.19338 0,0.66619 -0.52726,1.19375 -1.19347,1.19375 -0.66619,0 -1.19336,-0.52756 -1.19336,-1.19375 0,-0.66621 0.52717,-1.19338 1.19336,-1.19338 z" />
</svg>
